<?xml version="1.0" encoding="UTF-8" standalone="no"?><!DOCTYPE svg PUBLIC "-//W3C//DTD SVG 1.1//EN" "http://www.w3.org/Graphics/SVG/1.1/DTD/svg11.dtd"><svg width="100%" height="100%" viewBox="0 0 37 37" version="1.1" xmlns="http://www.w3.org/2000/svg" xmlns:xlink="http://www.w3.org/1999/xlink" xml:space="preserve" style="fill-rule:evenodd;clip-rule:evenodd;stroke-linejoin:round;stroke-miterlimit:1.41421;"><rect x="6.809" y="7.195" width="8.355" height="1.169"/><rect x="21.836" y="7.195" width="8.355" height="1.169"/><path d="M10.987,2.124c0.061,0.715 1.046,1.147 1.466,1.427c0.708,0.471 1.175,1.274 1.175,2.185c0,1.451 -1.184,2.628 -2.641,2.628c-1.458,0 -2.642,-1.177 -2.642,-2.628c0,-0.918 0.475,-1.727 1.193,-2.197c0.416,-0.272 1.376,-0.697 1.449,-1.415Z"/><path d="M26.013,2.124c0.062,0.715 1.047,1.147 1.467,1.427c0.708,0.471 1.175,1.274 1.175,2.185c0,1.451 -1.184,2.628 -2.642,2.628c-1.457,0 -2.641,-1.177 -2.641,-2.628c0,-0.918 0.474,-1.727 1.192,-2.197c0.416,-0.272 1.377,-0.697 1.449,-1.415Z"/><rect x="10.842" y="0" width="0.29" height="7.195"/><rect x="25.869" y="0" width="0.29" height="7.195"/><path d="M12.066,1.152l0,-0.249l-2.159,0l0,0.249l2.159,0Z"/><path d="M27.093,1.152l0,-0.249l-2.159,0l0,0.249l2.159,0Z"/><rect x="6.809" y="14.739" width="8.355" height="0.388"/><rect x="21.836" y="14.739" width="8.355" height="0.388"/><path d="M24.322,40.234l-11.606,0l0,-25.495l11.606,0l0,25.495Zm-5.362,-1.404l2.156,0l0,-9.553c0,0 0.222,-2.238 -2.597,-3.194c-2.819,0.956 -2.598,3.194 -2.598,3.194l0,9.553l3.039,0Zm-3.948,-15.364l0.629,0l0,-2.787c0,0 0.065,-0.653 -0.758,-0.932c-0.822,0.279 -0.758,0.932 -0.758,0.932l0,2.787l0.887,0Zm2.424,0l0.629,0l0,-2.787c0,0 0.064,-0.653 -0.758,-0.932c-0.823,0.279 -0.758,0.932 -0.758,0.932l0,2.787l0.887,0Zm2.423,0l0.629,0l0,-2.787c0,0 0.065,-0.653 -0.757,-0.932c-0.823,0.279 -0.758,0.932 -0.758,0.932l0,2.787l0.886,0Zm2.424,0l0.629,0l0,-2.787c0,0 0.065,-0.653 -0.758,-0.932c-0.822,0.279 -0.757,0.932 -0.757,0.932l0,2.787l0.886,0Z"/><path d="M29.761,8.364l0,28.636l-7.495,0l0,-12.372l1.917,0l0,-6.128l-1.917,0l0,-10.136l7.495,0Z"/><path d="M7.277,8.364l7.494,0l0,10.136l-1.598,0l0,5.786l1.598,0l0,12.714l-7.494,0l0,-28.636Z"/></svg>