<?xml version="1.0" encoding="UTF-8" standalone="no"?>
<!DOCTYPE svg PUBLIC "-//W3C//DTD SVG 1.1//EN" "http://www.w3.org/Graphics/SVG/1.1/DTD/svg11.dtd">
<svg width="100%" height="100%" viewBox="0 0 37 37" version="1.1" xmlns="http://www.w3.org/2000/svg" xmlns:xlink="http://www.w3.org/1999/xlink" xml:space="preserve" style="fill-rule:evenodd;clip-rule:evenodd;stroke-linejoin:round;stroke-miterlimit:1.41421;">
    <g transform="matrix(0.0584871,0,0,0.0581919,-21.9754,-3.44605)">
        <rect x="492.147" y="182.857" width="142.86" height="20.097" style="fill:rgb(255,76,114);"/>
    </g>
    <g transform="matrix(0.0584871,0,0,0.0581919,-6.94861,-3.44605)">
        <rect x="492.147" y="182.857" width="142.86" height="20.097" style="fill:rgb(255,76,114);"/>
    </g>
    <g transform="matrix(0.0459384,0,0,0.0457066,-15.8259,-1.75091)">
        <path d="M583.661,84.784C585,100.425 606.449,109.876 615.584,115.99C631.001,126.308 641.16,143.881 641.16,163.808C641.16,195.542 615.395,221.306 583.661,221.306C551.927,221.306 526.163,195.542 526.163,163.808C526.163,143.718 536.488,126.021 552.117,115.739C561.176,109.779 582.083,100.481 583.661,84.784Z" style="fill:rgb(255,76,114);"/>
    </g>
    <g transform="matrix(0.0459384,0,0,0.0457066,-0.799093,-1.75091)">
        <path d="M583.661,84.784C585,100.425 606.449,109.876 615.584,115.99C631.001,126.308 641.16,143.881 641.16,163.808C641.16,195.542 615.395,221.306 583.661,221.306C551.927,221.306 526.163,195.542 526.163,163.808C526.163,143.718 536.488,126.021 552.117,115.739C561.176,109.779 582.083,100.481 583.661,84.784Z" style="fill:rgb(255,76,114);"/>
    </g>
    <g transform="matrix(0.107591,0,0,0.0659248,-7.09679,-11.4349)">
        <rect x="166.729" y="173.454" width="2.693" height="109.136" style="fill:rgb(255,76,114);"/>
    </g>
    <g transform="matrix(0.107591,0,0,0.0659248,7.93,-11.4349)">
        <rect x="166.729" y="173.454" width="2.693" height="109.136" style="fill:rgb(255,76,114);"/>
    </g>
    <g transform="matrix(5.15876e-18,0.0924628,-0.0197794,0,15.4967,-14.5134)">
        <rect x="166.729" y="173.454" width="2.693" height="109.136" style="fill:rgb(255,76,114);"/>
    </g>
    <g transform="matrix(5.15876e-18,0.0924628,-0.0197794,0,30.5235,-14.5134)">
        <rect x="166.729" y="173.454" width="2.693" height="109.136" style="fill:rgb(255,76,114);"/>
    </g>
    <g transform="matrix(0.0584871,0,0,0.0193157,-21.9754,11.2072)">
        <rect x="492.147" y="182.857" width="142.86" height="20.097" style="fill:rgb(255,76,114);"/>
    </g>
    <g transform="matrix(0.0584871,0,0,0.0193157,-6.94861,11.2072)">
        <rect x="492.147" y="182.857" width="142.86" height="20.097" style="fill:rgb(255,76,114);"/>
    </g>
    <g transform="matrix(0.0905696,0,0,0.0779713,-43.4634,-13.96)">
        <path d="M748.431,695.046L620.289,695.046L620.289,368.074L748.431,368.074L748.431,695.046ZM689.234,677.046L713.036,677.046L713.036,554.519C713.036,554.519 715.485,525.824 684.36,513.56C653.235,525.824 655.683,554.519 655.683,554.519L655.683,677.046L689.234,677.046ZM645.64,480L652.585,480L652.585,444.248C652.585,444.248 653.3,435.875 644.218,432.297C635.136,435.875 635.85,444.248 635.85,444.248L635.85,480L645.64,480ZM672.401,480L679.347,480L679.347,444.248C679.347,444.248 680.061,435.875 670.979,432.297C661.897,435.875 662.611,444.248 662.611,444.248L662.611,480L672.401,480ZM699.163,480L706.108,480L706.108,444.248C706.108,444.248 706.822,435.875 697.74,432.297C688.658,435.875 689.373,444.248 689.373,444.248L689.373,480L699.163,480ZM725.924,480L732.869,480L732.869,444.248C732.869,444.248 733.584,435.875 724.502,432.297C715.42,435.875 716.134,444.248 716.134,444.248L716.134,480L725.924,480Z" style="fill:rgb(255,76,114);"/>
    </g>
    <path d="M29.761,8.364L29.761,37L22.266,37L22.266,24.628L24.183,24.628L24.183,18.5L22.266,18.5L22.266,8.364L29.761,8.364Z" style="fill:rgb(255,76,114);"/>
    <path d="M7.277,8.364L14.771,8.364L14.771,18.5L13.173,18.5L13.173,24.286L14.771,24.286L14.771,37L7.277,37L7.277,8.364Z" style="fill:rgb(255,76,114);"/>
</svg>
